<?xml version="1.0" encoding="utf-8"?>
<!-- Generator: Adobe Illustrator 21.0.0, SVG Export Plug-In . SVG Version: 6.00 Build 0)  -->
<svg version="1.1" id="Capa_1" xmlns="http://www.w3.org/2000/svg" xmlns:xlink="http://www.w3.org/1999/xlink" x="0px" y="0px"
	 viewBox="0 0 512 512" style="enable-background:new 0 0 512 512;" xml:space="preserve">
<style type="text/css">
	.st0{fill:#FFFFFF;}
</style>
<g>
	<g>
		<path class="st0" d="M431.4,176.6c-5.6-6.5-14.6-16.4-26.3-26.5c-29.6-25.6-60.6-39.1-89.7-39.1c-36.8,0-69,21.2-89.7,38.9
			c-11.7,10.1-20.8,20-26.3,26.5c-11.6,13.7-11.6,15.9-11.6,18.6c0,2.9,0,4.8,11.6,18.4c5.6,6.5,14.6,16.4,26.3,26.5
			c29.6,25.6,60.6,39.1,89.7,39.1c36.8,0,69-21.2,89.7-38.9c11.7-10.1,20.8-20,26.3-26.5c11.6-13.7,11.6-15.9,11.6-18.6
			C443.1,192.1,443.1,190.2,431.4,176.6z M315.5,259.1c-50.1,0-92.9-48.6-105.3-64.2c13.1-16.9,56.9-63.8,105.3-63.8
			c50.1,0,92.9,48.6,105.3,64.2C407.7,212.2,363.9,259.1,315.5,259.1z"/>
	</g>
</g>
<g>
	<g>
		<path class="st0" d="M315.5,144.9c-27.7,0-50.2,22.5-50.2,50.2s22.5,50.2,50.2,50.2c27.7,0,50.2-22.5,50.2-50.2
			S343.2,144.9,315.5,144.9z M315.5,225.2c-16.6,0-30.2-13.5-30.2-30.2s13.5-30.2,30.2-30.2s30.2,13.5,30.2,30.2
			S332.1,225.2,315.5,225.2z"/>
	</g>
</g>
<g>
	<g>
		<path class="st0" d="M322.6,188c-1.9-1.9-4.4-2.9-7.1-2.9s-5.2,1.1-7.1,2.9c-1.9,1.9-2.9,4.4-2.9,7.1c0,2.6,1.1,5.2,2.9,7.1
			c1.9,1.9,4.4,2.9,7.1,2.9s5.2-1.1,7.1-2.9c1.9-1.9,2.9-4.4,2.9-7.1C325.5,192.4,324.4,189.8,322.6,188z"/>
	</g>
</g>
<g>
	<g>
		<path class="st0" d="M452.4,36H300c-5.5,0-10,4.5-10,10s4.5,10,10,10h152.4c5.5,0,10-4.5,10-10S457.9,36,452.4,36z"/>
	</g>
</g>
<g>
	<g>
		<path class="st0" d="M229.8,38.9c-1.9-1.9-4.4-2.9-7.1-2.9c-2.6,0-5.2,1.1-7.1,2.9c-1.9,1.9-2.9,4.4-2.9,7.1s1.1,5.2,2.9,7.1
			c1.9,1.9,4.4,2.9,7.1,2.9c2.6,0,5.2-1.1,7.1-2.9c1.9-1.9,2.9-4.4,2.9-7.1S231.7,40.8,229.8,38.9z"/>
	</g>
</g>
<g>
	<g>
		<path class="st0" d="M193.1,38.9c-1.9-1.9-4.4-2.9-7.1-2.9s-5.2,1.1-7.1,2.9c-1.9,1.9-2.9,4.4-2.9,7.1s1.1,5.2,2.9,7.1
			c1.9,1.9,4.4,2.9,7.1,2.9s5.2-1.1,7.1-2.9c1.9-1.9,2.9-4.4,2.9-7.1S194.9,40.8,193.1,38.9z"/>
	</g>
</g>
<g>
	<g>
		<path class="st0" d="M266.6,38.9c-1.9-1.9-4.4-2.9-7.1-2.9c-2.6,0-5.2,1.1-7.1,2.9s-2.9,4.4-2.9,7.1s1.1,5.2,2.9,7.1
			c1.9,1.9,4.4,2.9,7.1,2.9c2.6,0,5.2-1.1,7.1-2.9c1.9-1.9,2.9-4.4,2.9-7.1S268.4,40.8,266.6,38.9z"/>
	</g>
</g>
<g>
	<g>
		<path class="st0" d="M502,0H129c-5.5,0-10,4.5-10,10v299c0,5.5,4.5,10,10,10h309v21c-0.3,0-0.6,0-0.9,0H20V105h44
			c5.5,0,10-4.5,10-10s-4.5-10-10-10H10C4.5,85,0,89.5,0,95v313c0,5.5,4.5,10,10,10h169v34h-39c-5.5,0-10,4.5-10,10v40
			c0,5.5,4.5,10,10,10h178c5.5,0,10-4.5,10-10v-40c0-5.5-4.5-10-10-10h-39v-34h169c5.5,0,10-4.5,10-10v-89h44c5.5,0,10-4.5,10-10V10
			C512,4.5,507.5,0,502,0z M308.1,472v20H150v-20h39h80H308.1z M199,452v-34h60v34H199z M438,398H269h-80H20v-38h417.1
			c0.3,0,0.6,0,0.9,0V398z M492,299H139V92h352.9c0,0,0.1,0,0.1,0V299z M492,72c0,0-0.1,0-0.1,0H139V20h353V72z"/>
	</g>
</g>
<g>
	<g>
		<path class="st0" d="M71.1,235.2c-1.9-1.9-4.4-2.9-7.1-2.9c-2.6,0-5.2,1.1-7.1,2.9c-1.9,1.9-2.9,4.4-2.9,7.1
			c0,2.6,1.1,5.2,2.9,7.1c1.9,1.9,4.4,2.9,7.1,2.9c2.6,0,5.2-1.1,7.1-2.9c1.9-1.9,2.9-4.4,2.9-7.1C74,239.6,72.9,237.1,71.1,235.2z"
			/>
	</g>
</g>
<g>
	<g>
		<path class="st0" d="M64,144.9c-5.5,0-10,4.5-10,10v50.7c0,5.5,4.5,10,10,10s10-4.5,10-10v-50.7C74,149.3,69.5,144.9,64,144.9z"/>
	</g>
</g>
<g>
	<g>
		<path class="st0" d="M71.1,272c-1.9-1.9-4.4-2.9-7.1-2.9s-5.2,1.1-7.1,2.9c-1.9,1.9-2.9,4.4-2.9,7.1c0,2.6,1.1,5.2,2.9,7.1
			c1.9,1.9,4.4,2.9,7.1,2.9c2.6,0,5.2-1.1,7.1-2.9c1.9-1.9,2.9-4.4,2.9-7.1C74,276.4,72.9,273.8,71.1,272z"/>
	</g>
</g>
</svg>
