<?xml version="1.0" encoding="utf-8"?>
<!-- Generator: Adobe Illustrator 21.0.0, SVG Export Plug-In . SVG Version: 6.00 Build 0)  -->
<svg version="1.1" id="Capa_1" xmlns="http://www.w3.org/2000/svg" xmlns:xlink="http://www.w3.org/1999/xlink" x="0px" y="0px"
	 viewBox="0 0 512 512" style="enable-background:new 0 0 512 512;" xml:space="preserve">
<style type="text/css">
	.st0{fill:#FFFFFF;}
</style>
<g>
	<g>
		<path class="st0" d="M292,32h-72c-5.5,0-10,4.5-10,10s4.5,10,10,10h72c5.5,0,10-4.5,10-10S297.5,32,292,32z"/>
	</g>
</g>
<g>
	<g>
		<path class="st0" d="M415.1,299.3c-1.9-1.9-4.4-2.9-7.1-2.9s-5.2,1.1-7.1,2.9c-1.9,1.9-2.9,4.4-2.9,7.1c0,2.6,1.1,5.2,2.9,7.1
			c1.9,1.9,4.4,2.9,7.1,2.9s5.2-1.1,7.1-2.9c1.9-1.9,2.9-4.4,2.9-7.1S416.9,301.1,415.1,299.3z"/>
	</g>
</g>
<g>
	<g>
		<path class="st0" d="M408,334.3c-5.5,0-10,4.5-10,10v73.6H114V394h82.9c12.7,0,23.1-10.4,23.1-23.1V251.1
			c0-12.7-10.4-23.1-23.1-23.1h-22.8l-23.2-23.2c-3.9-3.9-10.2-3.9-14.1,0L113.6,228H23.1C10.4,228,0,238.3,0,251.1v119.9
			C0,383.6,10.4,394,23.1,394H94v78.7c0,21.6,17.6,39.3,39.3,39.3h245.5c21.6,0,39.3-17.6,39.3-39.3V344.3
			C418,338.8,413.5,334.3,408,334.3z M23.1,374c-1.7,0-3.1-1.4-3.1-3.1V251.1c0-1.7,1.4-3.1,3.1-3.1h94.6c2.7,0,5.2-1.1,7.1-2.9
			l19.1-19.1l19.1,19.1c1.9,1.9,4.4,2.9,7.1,2.9h26.9c1.7,0,3.1,1.4,3.1,3.1v119.9c0,1.7-1.4,3.1-3.1,3.1H23.1z M398,472.7
			c0,10.6-8.6,19.3-19.3,19.3H133.3c-10.6,0-19.3-8.6-19.3-19.3v-34.8h284V472.7z"/>
	</g>
</g>
<g>
	<g>
		<path class="st0" d="M263.1,456.7c-1.9-1.9-4.4-2.9-7.1-2.9s-5.2,1.1-7.1,2.9s-2.9,4.4-2.9,7.1s1.1,5.2,2.9,7.1
			c1.9,1.9,4.4,2.9,7.1,2.9s5.2-1.1,7.1-2.9s2.9-4.4,2.9-7.1C266,461.1,264.9,458.5,263.1,456.7z"/>
	</g>
</g>
<g>
	<g>
		<path class="st0" d="M488.9,100H418V39.3C418,17.6,400.4,0,378.7,0H133.3C111.6,0,94,17.6,94,39.3v156.8c0,5.5,4.5,10,10,10
			s10-4.5,10-10V84h284v16h-82.9c-12.7,0-23.1,10.3-23.1,23.1v119.9c0,12.7,10.4,23.1,23.1,23.1h18.6l23.2,23.2c2,2,4.5,2.9,7.1,2.9
			s5.1-1,7.1-2.9l23.2-23.2h94.6c12.7,0,23.1-10.4,23.1-23.1V123.1C512,110.3,501.6,100,488.9,100z M114,64V39.3
			c0-10.6,8.6-19.3,19.3-19.3h245.5c10.6,0,19.3,8.6,19.3,19.3V64H114z M492,242.9c0,1.7-1.4,3.1-3.1,3.1h-98.8
			c-2.7,0-5.2,1.1-7.1,2.9L364,268l-19.1-19.1c-1.9-1.9-4.4-2.9-7.1-2.9h-22.8c-1.7,0-3.1-1.4-3.1-3.1V123.1c0-1.7,1.4-3.1,3.1-3.1
			h173.9c1.7,0,3.1,1.4,3.1,3.1L492,242.9L492,242.9z"/>
	</g>
</g>
<g>
	<g>
		<path class="st0" d="M441.9,170.1l-38.2-24.5c-6.1-3.9-13.9-4.2-20.4-0.7c-6.4,3.5-10.4,10.2-10.4,17.5v49c0,7.3,4,14,10.4,17.5
			c3,1.6,6.3,2.4,9.6,2.4c3.8,0,7.5-1.1,10.8-3.2l38.2-24.5c5.8-3.7,9.2-10,9.2-16.8C451.1,180,447.7,173.7,441.9,170.1z M393,211.3
			l0-48.9l38.1,24.4L393,211.3z"/>
	</g>
</g>
<g>
	<g>
		<path class="st0" d="M163.1,303.9c-1.9-1.9-4.4-2.9-7.1-2.9s-5.2,1.1-7.1,2.9c-1.9,1.9-2.9,4.4-2.9,7.1c0,2.6,1.1,5.2,2.9,7.1
			s4.4,2.9,7.1,2.9s5.2-1.1,7.1-2.9s2.9-4.4,2.9-7.1C166,308.3,164.9,305.7,163.1,303.9z"/>
	</g>
</g>
<g>
	<g>
		<path class="st0" d="M114.1,303.9c-1.9-1.9-4.4-2.9-7.1-2.9s-5.2,1.1-7.1,2.9c-1.9,1.9-2.9,4.4-2.9,7.1c0,2.6,1.1,5.2,2.9,7.1
			s4.4,2.9,7.1,2.9s5.2-1.1,7.1-2.9s2.9-4.4,2.9-7.1C117,308.3,115.9,305.7,114.1,303.9z"/>
	</g>
</g>
<g>
	<g>
		<path class="st0" d="M65.1,303.9c-1.9-1.9-4.4-2.9-7.1-2.9s-5.2,1.1-7.1,2.9c-1.9,1.9-2.9,4.4-2.9,7.1c0,2.6,1.1,5.2,2.9,7.1
			s4.4,2.9,7.1,2.9s5.2-1.1,7.1-2.9s2.9-4.4,2.9-7.1C68,308.3,66.9,305.7,65.1,303.9z"/>
	</g>
</g>
<g>
	<g>
		<path class="st0" d="M263,118H141c-5.5,0-10,4.5-10,10c0,5.5,4.5,10,10,10h122c5.5,0,10-4.5,10-10S268.5,118,263,118z"/>
	</g>
</g>
<g>
	<g>
		<path class="st0" d="M189.6,158H141c-5.5,0-10,4.5-10,10s4.5,10,10,10h48.6c5.5,0,10-4.5,10-10S195.1,158,189.6,158z"/>
	</g>
</g>
<g>
	<g>
		<path class="st0" d="M243.1,160.9c-1.9-1.9-4.4-2.9-7.1-2.9s-5.2,1.1-7.1,2.9c-1.9,1.9-2.9,4.4-2.9,7.1s1.1,5.2,2.9,7.1
			s4.4,2.9,7.1,2.9s5.2-1.1,7.1-2.9c1.9-1.9,2.9-4.4,2.9-7.1S244.9,162.8,243.1,160.9z"/>
	</g>
</g>
<g>
	<g>
		<path class="st0" d="M363.6,337.9H263.5c-5.5,0-10,4.5-10,10s4.5,10,10,10h100.1c5.5,0,10-4.5,10-10
			C373.6,342.4,369.1,337.9,363.6,337.9z"/>
	</g>
</g>
<g>
	<g>
		<path class="st0" d="M315.5,377.9h-52c-5.5,0-10,4.5-10,10s4.5,10,10,10h52c5.5,0,10-4.5,10-10S321,377.9,315.5,377.9z"/>
	</g>
</g>
</svg>
