<?xml version="1.0" encoding="utf-8"?>
<!-- Generator: Adobe Illustrator 21.0.0, SVG Export Plug-In . SVG Version: 6.00 Build 0)  -->
<svg version="1.1" id="Capa_1" xmlns="http://www.w3.org/2000/svg" xmlns:xlink="http://www.w3.org/1999/xlink" x="0px" y="0px"
	 viewBox="0 0 512 512" style="enable-background:new 0 0 512 512;" xml:space="preserve">
<style type="text/css">
	.st0{fill:#FFFFFF;}
</style>
<g>
	<g>
		<path class="st0" d="M304,0C197.1,0,108.8,81.1,97.3,185l-15-15c-1.9-1.9-4.4-2.9-7.1-2.9H10c-4,0-7.7,2.4-9.2,6.2
			s-0.7,8,2.2,10.9L26.9,208L2.9,232c-2.9,2.9-3.7,7.2-2.2,10.9C2.3,246.6,6,249,10,249h65.2c2.7,0,5.2-1.1,7.1-2.9l15-15
			c3.3,29.6,12.9,58.2,28.2,83.8c2.8,4.7,9,6.3,13.7,3.4c4.7-2.8,6.3-9,3.4-13.7c-15.7-26.2-24.7-56-26.4-86.6h36
			c1.7,26.9,10.5,52.6,25.6,75c3.1,4.6,9.3,5.8,13.9,2.7c4.6-3.1,5.8-9.3,2.7-13.9c-12.9-19.1-20.5-40.9-22.2-63.8h36.1
			c3.9,37.7,29.7,68.9,64.4,80.9L97.7,344H57.1c-13.3,0-24.3,9.6-26.5,22.3C13,370.6,0,386.4,0,405.3c0,18.9,13.1,34.7,30.7,39
			c2,10,9.5,18,19.2,20.7l16,40.6c1.5,3.8,5.2,6.3,9.3,6.3h41.9c3.3,0,6.4-1.6,8.3-4.4c1.9-2.7,2.3-6.2,1-9.3l-10.9-27.7l158,41.1
			c0.8,0.2,1.7,0.3,2.5,0.3c2.2,0,4.3-0.7,6.1-2.1c2.4-1.9,3.9-4.8,3.9-7.9V308.4c0-2.4-0.9-4.8-2.5-6.6c6.6,1.4,13.5,2.2,20.5,2.2
			c53,0,96-43.1,96-96s-43.1-96-96-96c-49.6,0-90.5,37.8-95.5,86h-36.1c5.1-68.1,62.2-122,131.6-122c72.8,0,132,59.2,132,132
			c0,35.3-13.7,68.4-38.7,93.4c-3.9,3.9-3.9,10.2,0,14.1c2,2,4.5,2.9,7.1,2.9s5.1-1,7.1-2.9C440.2,286.8,456,248.7,456,208
			c0-83.8-68.2-152-152-152c-80.5,0-146.5,62.8-151.7,142h-36.1C121.4,99,203.7,20,304,20c103.7,0,188,84.3,188,188
			c0,42.1-13.6,81.9-39.4,115.1c-3.4,4.4-2.6,10.6,1.8,14c1.8,1.4,4,2.1,6.1,2.1c3,0,5.9-1.3,7.9-3.9C496.9,298.7,512,254.6,512,208
			C512,93.3,418.7,0,304,0z M71,229H34.1l13.9-13.9c3.9-3.9,3.9-10.2,0-14.1L34.1,187H71l21,21L71,229z M30.2,422.8
			c-6.1-3.5-10.2-10-10.2-17.5s4.1-14,10.2-17.5V422.8z M57.1,446c-3.8,0-6.9-3.1-6.9-6.9v-68.2h0c0-3.8,3.1-6.9,6.9-6.9H89v82
			L57.1,446L57.1,446z M82,492l-10.2-26h20.4l10.2,26L82,492L82,492z M266,489l-157-40.8v-86.5l113-29.1v77.7c0,5.5,4.5,10,10,10
			c5.5,0,10-4.5,10-10v-82.8l24-6.2L266,489L266,489z M304,198h-17.3c3.5-6,9.9-10,17.3-10c11.1,0,20,9,20,20s-9,20-20,20
			c-7.4,0-13.9-4.1-17.3-10H304c5.5,0,10-4.5,10-10C314,202.5,309.5,198,304,198z M304,248.1c22.1,0,40-18,40-40s-18-40-40-40
			c-18.6,0-34.3,12.8-38.8,30h-36.6c4.9-37.2,36.8-66,75.4-66c41.9,0,76,34.1,76,76s-34.1,76-76,76c-38.5,0-70.4-28.8-75.4-66h36.6
			C269.7,235.3,285.4,248.1,304,248.1z"/>
	</g>
</g>
<g>
	<g>
		<path class="st0" d="M446,346.3c-3.7-4-10.1-4.3-14.1-0.5c0,0-0.1,0.1-0.2,0.2c-4,3.8-4.1,10.1-0.3,14.1c2,2,4.6,3.1,7.2,3.1
			c2.5,0,4.9-0.9,6.8-2.7c0,0,0,0,0.1-0.1C449.6,356.7,449.8,350.4,446,346.3z"/>
	</g>
</g>
<g>
	<g>
		<path class="st0" d="M383.4,325.6c-3.9-3.9-10.2-3.9-14.1,0c-3.9,3.9-3.9,10.2,0,14.1c36.1,36.1,36.1,94.8,0,130.8
			c-3.9,3.9-3.9,10.2,0,14.1c2,2,4.5,2.9,7.1,2.9s5.1-1,7.1-2.9C427.2,440.9,427.2,369.5,383.4,325.6z"/>
	</g>
</g>
<g>
	<g>
		<path class="st0" d="M357.9,351.1c-3.9-3.9-10.2-3.9-14.1,0c-3.9,3.9-3.9,10.2,0,14.1c22,22,22,57.9,0,79.9
			c-3.9,3.9-3.9,10.2,0,14.1c2,2,4.5,2.9,7.1,2.9s5.1-1,7.1-2.9C387.7,429.5,387.7,380.9,357.9,351.1z"/>
	</g>
</g>
<g>
	<g>
		<path class="st0" d="M331,378c-3.9-3.9-10.2-3.9-14.1,0c-3.9,3.9-3.9,10.2,0,14.1c7.2,7.2,7.2,18.9,0,26.2
			c-3.9,3.9-3.9,10.2,0,14.1c2,2,4.5,2.9,7.1,2.9s5.1-1,7.1-2.9C346,417.4,346,393,331,378z"/>
	</g>
</g>
<g>
	<g>
		<path class="st0" d="M239,440.9c-1.9-1.9-4.4-2.9-7.1-2.9s-5.2,1.1-7.1,2.9c-1.9,1.9-2.9,4.4-2.9,7.1s1.1,5.2,2.9,7.1
			c1.9,1.9,4.4,2.9,7.1,2.9s5.2-1.1,7.1-2.9c1.9-1.9,2.9-4.4,2.9-7.1S240.9,442.8,239,440.9z"/>
	</g>
</g>
</svg>
