<?xml version="1.0" encoding="utf-8"?>
<!-- Generator: Adobe Illustrator 21.0.0, SVG Export Plug-In . SVG Version: 6.00 Build 0)  -->
<svg version="1.1" id="Capa_1" xmlns="http://www.w3.org/2000/svg" xmlns:xlink="http://www.w3.org/1999/xlink" x="0px" y="0px"
	 viewBox="0 0 512 512" style="enable-background:new 0 0 512 512;" xml:space="preserve">
<style type="text/css">
	.st0{fill:#FFFFFF;}
</style>
<g>
	<g>
		<path class="st0" d="M416,199.6l-0.5-0.5c-4-3.9-10.3-3.8-14.1,0.2c-3.9,3.9-3.8,10.3,0.2,14.1l0.5,0.5c1.9,1.9,4.5,2.9,7,2.9
			c2.6,0,5.2-1,7.1-3C420,209.8,420,203.5,416,199.6z"/>
	</g>
</g>
<g>
	<g>
		<path class="st0" d="M410.9,373.9c-6.5,0-12.6,1.7-18.1,4.7L367.1,353c12.5-8.5,23.8-17.4,33.5-25.9
			c19.1-16.8,33.9-33.2,42.9-44.1c17.7-21.2,17.7-24.4,17.7-27c0-3.5-1.1-5.3-6.4-12.4c-2.6-3.5-7-9.2-13.1-16.4
			c-3.6-4.2-9.9-4.7-14.1-1.2c-4.2,3.6-4.7,9.9-1.2,14.1c5.7,6.7,10,12.3,12.8,16c-7.2,10-26.7,34.5-55.1,58.8
			c-30,25.7-76.6,56.4-128,56.4c-91.3,0-166.8-93.7-183.1-115.5c7.3-10.1,26.7-34.5,55-58.7c30-25.7,76.6-56.4,128-56.4
			c37.6,0,77,16.1,117.2,47.7c4.3,3.4,10.6,2.7,14-1.7c3.4-4.3,2.7-10.6-1.7-14c-6.2-4.9-12.3-9.4-18.5-13.6l25.7-25.7
			c5.5,3.1,11.7,4.7,18.1,4.7c9.9,0,19.2-3.8,26.2-10.8c14.4-14.4,14.4-37.9,0-52.3c-7-7-16.3-10.8-26.2-10.8S391.7,68,384.7,75
			c-7,7-10.8,16.3-10.8,26.2c0,6.5,1.7,12.7,4.7,18.1l-28.9,28.9c-28.2-16.3-56.2-25.4-83.7-27.2V72.6c15.6-4.4,27-18.7,27-35.6
			c0-20.4-16.6-37-37-37s-37,16.6-37,37c0,16.9,11.4,31.2,27,35.6V121c-30.6,2-59,13-83.7,27.1l-28.9-28.9
			c3.1-5.5,4.7-11.7,4.7-18.1c0-9.9-3.8-19.2-10.8-26.2c-7-7-16.3-10.8-26.2-10.8S82,68,75,75c-14.4,14.4-14.4,37.9,0,52.3
			c7,7,16.3,10.8,26.2,10.8c6.5,0,12.7-1.7,18.1-4.7l25.6,25.6c-12.5,8.5-23.8,17.4-33.5,25.9c-19.1,16.8-33.9,33.2-42.9,44.1
			c-17.7,21.2-17.7,24.4-17.7,27c0,3.6,1.4,5.7,5.9,11.8c2.3,3.2,6.2,8.3,11.8,14.9c9.1,10.9,23.9,27.4,42.9,44.1
			c9.7,8.6,21,17.6,33.6,26.1l-25.7,25.7c-5.5-3.1-11.7-4.7-18.1-4.7c-9.9,0-19.2,3.8-26.2,10.8c-14.4,14.4-14.4,37.9,0,52.3
			c7,7,16.3,10.8,26.2,10.8s19.2-3.8,26.2-10.8c7-7,10.8-16.3,10.8-26.2c0-6.5-1.7-12.6-4.7-18.1l29-29
			c24.7,14.2,53.1,25.2,83.6,27.2v48.4c-15.6,4.4-27,18.7-27,35.6c0,20.4,16.6,37,37,37c20.4,0,37-16.6,37-37
			c0-16.9-11.4-31.2-27-35.6V391c30.6-2,59-13,83.7-27.1l28.9,28.9c-3.1,5.5-4.7,11.7-4.7,18.1c0,9.9,3.8,19.2,10.8,26.2
			c7,7,16.3,10.8,26.2,10.8S430,444,437,437c14.4-14.4,14.4-37.9,0-52.3C430,377.7,420.7,373.9,410.9,373.9z M398.8,89.1
			c3.2-3.2,7.5-5,12-5s8.8,1.8,12,5c6.6,6.6,6.6,17.4,0,24c-3.2,3.2-7.5,5-12,5c-4.5,0-8.8-1.8-12-5c0,0,0,0,0,0c0,0,0,0,0,0
			c-3.2-3.2-5-7.5-5-12C393.9,96.6,395.6,92.3,398.8,89.1z M239,37c0-9.4,7.6-17,17-17s17,7.6,17,17s-7.6,17-17,17S239,46.4,239,37z
			 M113.2,113.2C113.2,113.2,113.2,113.2,113.2,113.2C113.2,113.2,113.2,113.2,113.2,113.2c-3.2,3.2-7.5,5-12,5c-4.5,0-8.8-1.8-12-5
			c-6.6-6.6-6.6-17.4,0-24c3.2-3.2,7.5-5,12-5s8.8,1.8,12,5s5,7.5,5,12C118.1,105.7,116.4,110,113.2,113.2z M113.2,422.9
			c-3.2,3.2-7.5,5-12,5s-8.8-1.8-12-5c-6.6-6.6-6.6-17.4,0-24c3.2-3.2,7.5-5,12-5c4.5,0,8.8,1.8,12,5c0,0,0,0,0,0c0,0,0,0,0,0
			c3.2,3.2,5,7.5,5,12C118.1,415.4,116.4,419.7,113.2,422.9z M273,475c0,9.4-7.6,17-17,17s-17-7.6-17-17s7.6-17,17-17
			S273,465.6,273,475z M422.9,422.9c-3.2,3.2-7.5,5-12,5s-8.8-1.8-12-5s-5-7.5-5-12c0-4.5,1.8-8.8,5-12c0,0,0,0,0,0c0,0,0,0,0,0
			c3.2-3.2,7.5-5,12-5c4.5,0,8.8,1.8,12,5C429.5,405.5,429.5,416.2,422.9,422.9z"/>
	</g>
</g>
<g>
	<g>
		<path class="st0" d="M256.6,328.4C256.6,328.4,256.6,328.4,256.6,328.4l-0.5,0c-5.5,0-10,4.5-10,10s4.5,10,10,10l0.5,0
			c5.5,0,10-4.5,10-10C266.6,332.9,262.1,328.4,256.6,328.4z"/>
	</g>
</g>
<g>
	<g>
		<path class="st0" d="M256.1,146.6c-5.5,0-10,4.5-10,10v7.4c-46.3,5-82.5,44.3-82.5,92c0,17.7,5,35,14.6,49.8
			c9.3,14.5,22.3,26.1,37.8,33.5c5,2.4,11,0.3,13.4-4.7c2.4-5,0.3-11-4.7-13.4c-24.9-12-41-37.7-41-65.3c0-16.4,5.5-31.5,14.7-43.7
			L249,263c0,0,0,0,0,0c1.8,1.8,4.3,2.9,7.1,2.9h71.8c-3.4,23.8-18.5,44.9-40.5,55.4c-5,2.4-7.1,8.4-4.7,13.3c1.7,3.6,5.3,5.7,9,5.7
			c1.5,0,2.9-0.3,4.3-1c28.9-13.9,48.5-42,52-73.4h7.4c5.5,0,10-4.5,10-10C365.4,195.6,316.4,146.6,256.1,146.6z M246.1,231.8
			l-33.7-33.7c9.6-7.3,21.1-12.3,33.7-14V231.8z M266.1,245.9v-78.8c41.3,4.6,74.1,37.5,78.8,78.8L266.1,245.9L266.1,245.9z"/>
	</g>
</g>
<g>
	<g>
		<path class="st0" d="M502,246.1h-17.5c-5.5,0-10,4.5-10,10s4.5,10,10,10H502c5.5,0,10-4.5,10-10S507.5,246.1,502,246.1z"/>
	</g>
</g>
<g>
	<g>
		<path class="st0" d="M27.5,246.1H10c-5.5,0-10,4.5-10,10s4.5,10,10,10h17.5c5.5,0,10-4.5,10-10S33,246.1,27.5,246.1z"/>
	</g>
</g>
</svg>
