<?xml version="1.0" encoding="utf-8"?>
<!-- Generator: Adobe Illustrator 21.0.0, SVG Export Plug-In . SVG Version: 6.00 Build 0)  -->
<svg version="1.1" id="Capa_1" xmlns="http://www.w3.org/2000/svg" xmlns:xlink="http://www.w3.org/1999/xlink" x="0px" y="0px"
	 viewBox="0 0 512 512" style="enable-background:new 0 0 512 512;" xml:space="preserve">
<style type="text/css">
	.st0{fill:#FFFFFF;}
</style>
<g>
	<g>
		<path class="st0" d="M123,120.5c-3.8,0-6,1.9-7.4,5.7c-4.8,13.5-9.2,29.1-14.1,42.8l-14.4-42.8c-1.3-3.8-3.9-5.7-7.8-5.7
			c-5.2,0-7.8,2.6-7.8,7.8c0,1,0.2,2,0.5,3.1l20.6,57.1c1.8,5.1,4.8,7.8,8.7,7.8c4.3,0,7.4-2.8,9.4-8.6l19.9-56.2
			c0.4-0.8,0.7-1.8,0.7-2.8C131.4,124.4,127,120.5,123,120.5z"/>
	</g>
</g>
<g>
	<g>
		<path class="st0" d="M178.2,163.1c7.9-5.1,11.5-12.5,11.5-19.9c0-11.6-9-22.6-25.4-22.6H145c-6.3,0-9.6,2.5-9.6,8.1h0v59
			c0,5.7,2.6,8.6,7.9,8.6c5.1,0,7.7-2.8,7.7-8.6v-20.5h11.3l12.2,24.9c1.7,3.4,4.4,4.3,7.1,4.3c5.1,0,7.4-3.1,7.4-7.5
			c0-1.7-0.6-3.4-1.3-5.1L178.2,163.1z M165,151.6h-14.1v-15.5H165c6.1,0,8.7,3.5,8.7,7.1C173.7,147.3,170.4,151.6,165,151.6z"/>
	</g>
</g>
<g>
	<g>
		<path class="st0" d="M511.8,324.7l-8.3-55.2c-1.3-8.6-8.6-14.9-17.3-14.9h-25.3c-9.4-22.5-30.9-38.6-56.2-40.3
			c-1.1-0.1-2.1-0.1-3.2-0.2c-54.3-3.6-110.7-12.2-165.1-8.6c-1.8,0.1-3.6,0.2-5.3,0.4c6-13.5,9.4-28.4,9.4-44
			c0-59.7-48.6-108.2-108.2-108.2c-41,0-78,22.7-96.6,59.4c-1.9,3.7-0.4,8.2,3.3,10.1c3.7,1.9,8.2,0.4,10.1-3.3
			c16-31.5,47.9-51.1,83.2-51.1c51.4,0,93.2,41.8,93.2,93.2c0,16.4-4.3,31.8-11.7,45.2c-36.3,2.4-72.5,4.8-108.8,7.3
			c-14,0.9-26.8,6.3-37.1,14.7c-16.2-15.5-26.8-36.8-28.5-60.6c-0.3-4.1-3.9-7.3-8-7c-4.1,0.3-7.3,3.9-7,8
			c1.9,26.8,13.6,51.7,33,70.4c-3.5,4.5-6.3,9.4-8.6,14.7H25.9c-8.7,0-16,6.3-17.3,14.9l-8.3,55.2c-0.8,5,0.7,10.2,4,14
			c3.3,3.9,8.2,6.1,13.3,6.1h17.3l-5,39.7c-2.4,18.7,3.4,37.5,15.9,51.7s30.4,22.3,49.3,22.3h52.3c12.7,0,25.1-2.1,37.1-6.3
			l67.8-23.6h5.2l67.8,23.6c3.9,1.4,8.2-0.7,9.6-4.6c1.4-3.9-0.7-8.2-4.6-9.6l-69-24c-0.8-0.3-1.6-0.4-2.5-0.4h-7.8
			c-0.8,0-1.7,0.1-2.5,0.4l-69,24c-10.4,3.6-21.2,5.4-32.2,5.4H94.8c-14.5,0-28.4-6.3-38-17.1c-9.6-10.9-14.1-25.4-12.2-39.8
			l6.1-48.1l10.4-74.5c6.4-19.2,23.9-33.2,44.6-34.6c43.2-2.9,86.4-5.8,129.5-8.6c55-3.7,112.5,4.9,167.8,8.6c0.1,0,0.3,0,0.4,0
			c24.1,1.6,43.8,20.1,46.8,44.1l14.4,113c1.8,14.4-2.6,28.9-12.2,39.8c-9.6,10.9-23.4,17.1-38,17.1h-32.5c-4.2,0-7.5,3.4-7.5,7.5
			s3.4,7.5,7.5,7.5h32.5c18.8,0,36.8-8.1,49.3-22.3s18.2-33,15.9-51.7l-5-39.7h19.8c5.1,0,9.9-2.2,13.3-6.1
			C511.1,334.9,512.6,329.7,511.8,324.7z M44.1,271.5l-7.4,58.3H17.5v0c-1,0-1.6-0.5-1.9-0.9c-0.3-0.3-0.7-1-0.6-2l8.3-55.2
			c0.2-1.2,1.2-2.1,2.4-2.1h18.5C44.3,270.3,44.2,270.9,44.1,271.5z M496.4,328.9c-0.3,0.3-0.9,0.9-1.9,0.9h-19.3l-8.4-60.1h19.3
			c1.2,0,2.2,0.9,2.4,2.1l8.3,55.2C497.1,327.9,496.6,328.6,496.4,328.9z"/>
	</g>
</g>
<g>
	<g>
		<path class="st0" d="M282.4,254.6h-63.2c-4.2,0-7.5,3.4-7.5,7.5s3.4,7.5,7.5,7.5h63.2c4.2,0,7.5-3.4,7.5-7.5
			S286.6,254.6,282.4,254.6z"/>
	</g>
</g>
<g>
	<g>
		<path class="st0" d="M381.7,301.7c-2.7-3.2-7.5-3.5-10.6-0.8L334.7,332c-3.2,2.7-3.5,7.5-0.8,10.6c1.5,1.7,3.6,2.6,5.7,2.6
			c1.7,0,3.5-0.6,4.9-1.8l36.4-31.1C384,309.6,384.4,304.8,381.7,301.7z"/>
	</g>
</g>
<g>
	<g>
		<path class="st0" d="M419.9,316.1c-2.7-3.2-7.4-3.5-10.6-0.8L318.3,393c-3.2,2.7-3.5,7.5-0.8,10.6c1.5,1.7,3.6,2.6,5.7,2.6
			c1.7,0,3.5-0.6,4.9-1.8l90.9-77.7C422.2,324.1,422.6,319.3,419.9,316.1z"/>
	</g>
</g>
<g>
	<g>
		<path class="st0" d="M156.1,301.7c-2.7-3.2-7.4-3.5-10.6-0.8L109.1,332c-3.2,2.7-3.5,7.5-0.8,10.6c1.5,1.7,3.6,2.6,5.7,2.6
			c1.7,0,3.5-0.6,4.9-1.8l36.4-31.1C158.4,309.6,158.8,304.8,156.1,301.7z"/>
	</g>
</g>
<g>
	<g>
		<path class="st0" d="M194.3,316.1c-2.7-3.2-7.4-3.5-10.6-0.8L92.7,393c-3.2,2.7-3.5,7.5-0.8,10.6c1.5,1.7,3.6,2.6,5.7,2.6
			c1.7,0,3.5-0.6,4.9-1.8l90.9-77.7C196.6,324.1,197,319.3,194.3,316.1z"/>
	</g>
</g>
</svg>
