<?xml version="1.0" encoding="utf-8"?>
<!-- Generator: Adobe Illustrator 21.0.0, SVG Export Plug-In . SVG Version: 6.00 Build 0)  -->
<svg version="1.1" id="Capa_1" xmlns="http://www.w3.org/2000/svg" xmlns:xlink="http://www.w3.org/1999/xlink" x="0px" y="0px"
	 viewBox="0 0 512 512" style="enable-background:new 0 0 512 512;" xml:space="preserve">
<style type="text/css">
	.st0{fill:#FFFFFF;}
</style>
<g>
	<g>
		<path class="st0" d="M303.7,205.8l-52.2-33.4c-6.7-4.3-15.1-4.6-22.1-0.8c-6.9,3.8-11.3,11.1-11.3,19v66.9c0,7.9,4.3,15.2,11.3,19
			c3.2,1.8,6.8,2.7,10.4,2.7c4.1,0,8.1-1.1,11.7-3.4l52.2-33.4c6.2-4,10-10.8,10-18.2S310,209.8,303.7,205.8z M293,225.4l-52.2,33.4
			c-0.2,0.1-0.8,0.5-1.7,0.1c-0.9-0.5-0.9-1.2-0.9-1.4v-66.9c0-0.2,0-1,0.9-1.4c0.3-0.2,0.6-0.2,0.8-0.2c0.4,0,0.7,0.2,0.9,0.3
			l52.2,33.4c0.5,0.3,0.8,0.8,0.8,1.4C293.7,224.6,293.5,225.1,293,225.4z"/>
	</g>
</g>
<g>
	<g>
		<path class="st0" d="M263.1,29.9c-1.9-1.9-4.4-2.9-7.1-2.9s-5.2,1.1-7.1,2.9S246,34.4,246,37s1.1,5.2,2.9,7.1s4.4,2.9,7.1,2.9
			s5.2-1.1,7.1-2.9c1.9-1.9,2.9-4.4,2.9-7.1S264.9,31.8,263.1,29.9z"/>
	</g>
</g>
<g>
	<g>
		<path class="st0" d="M502,27H303.7c-5.5,0-10,4.5-10,10s4.5,10,10,10H492v418H20V47h192c5.5,0,10-4.5,10-10s-4.5-10-10-10H10
			C4.5,27,0,31.5,0,37v438c0,5.5,4.5,10,10,10h492c5.5,0,10-4.5,10-10V37C512,31.5,507.5,27,502,27z"/>
	</g>
</g>
<g>
	<g>
		<path class="st0" d="M453.8,240.5c-5.5,0-10,4.5-10,10v91c0,5.5,4.5,10,10,10s10-4.5,10-10v-91C463.8,245,459.3,240.5,453.8,240.5
			z"/>
	</g>
</g>
<g>
	<g>
		<path class="st0" d="M460.8,204.4c-1.9-1.9-4.4-2.9-7.1-2.9s-5.2,1.1-7.1,2.9c-1.9,1.9-2.9,4.4-2.9,7.1s1.1,5.2,2.9,7.1
			c1.9,1.9,4.4,2.9,7.1,2.9s5.2-1.1,7.1-2.9c1.9-1.9,2.9-4.4,2.9-7.1S462.7,206.3,460.8,204.4z"/>
	</g>
</g>
<g>
	<g>
		<path class="st0" d="M256,114c-60.7,0-110,49.3-110,110s49.3,110,110,110s110-49.3,110-110S316.7,114,256,114z M256,314
			c-49.6,0-90-40.4-90-90s40.4-90,90-90s90,40.4,90,90S305.6,314,256,314z"/>
	</g>
</g>
<g>
	<g>
		<path class="st0" d="M462.3,401H212.5c-4.5-18.3-21.1-32-40.8-32h-24c-19.7,0-36.3,13.7-40.8,32H43c-5.5,0-10,4.5-10,10
			s4.5,10,10,10h63.9c4.5,18.3,21.1,32,40.8,32h24c19.7,0,36.3-13.7,40.8-32h249.9c5.5,0,10-4.5,10-10S467.9,401,462.3,401z
			 M171.7,433h-24c-12.1,0-22-9.9-22-22s9.9-22,22-22h24c12.1,0,22,9.9,22,22S183.8,433,171.7,433z"/>
	</g>
</g>
</svg>
