<?xml version="1.0" encoding="utf-8"?>
<!-- Generator: Adobe Illustrator 21.0.0, SVG Export Plug-In . SVG Version: 6.00 Build 0)  -->
<svg version="1.1" id="Capa_1" xmlns="http://www.w3.org/2000/svg" xmlns:xlink="http://www.w3.org/1999/xlink" x="0px" y="0px"
	 viewBox="0 0 512 512" style="enable-background:new 0 0 512 512;" xml:space="preserve">
<style type="text/css">
	.st0{fill:#FFFFFF;}
</style>
<g>
	<g>
		<path class="st0" d="M510,425.8c-3-8.1-8.9-14.6-16.8-18.2c-13.8-6.4-29.9-2.1-38.9,9.4l-67.9-31.3V239.8c0-0.3,0-0.7-0.1-1
			c0-0.1,0-0.2-0.1-0.3c0-0.2-0.1-0.4-0.1-0.7c0-0.1-0.1-0.2-0.1-0.4c-0.1-0.2-0.1-0.4-0.2-0.6c-0.1-0.1-0.1-0.2-0.2-0.4
			c-0.1-0.2-0.2-0.4-0.3-0.5c-0.1-0.1-0.1-0.2-0.2-0.3c-0.1-0.2-0.3-0.4-0.4-0.5c-0.1-0.1-0.1-0.2-0.2-0.3c-0.2-0.2-0.4-0.4-0.7-0.6
			c0,0,0,0-0.1-0.1c-0.2-0.2-0.5-0.4-0.7-0.6c0,0,0,0-0.1,0c-0.1-0.1-0.2-0.1-0.3-0.2c-0.2-0.1-0.4-0.2-0.6-0.3c0,0-0.1,0-0.1-0.1
			l-40-17.5c-3.8-1.7-8.2,0.1-9.9,3.9c-1.7,3.8,0.1,8.2,3.9,9.9l24.4,10.7L256,285.5l-104.2-45.7L256,194.2l30.2,13.2
			c3.8,1.7,8.2-0.1,9.9-3.9c1.7-3.8-0.1-8.2-3.9-9.9l-28.7-12.6v-74.6c14.2-3.4,24.8-16.2,24.8-31.4c0-17.8-14.5-32.3-32.3-32.3
			c-17.8,0-32.3,14.5-32.3,32.3c0,15.2,10.6,28,24.8,31.4v74.6L130.1,233c0,0-0.1,0-0.1,0.1c-0.2,0.1-0.4,0.2-0.6,0.3
			c-0.1,0.1-0.2,0.1-0.3,0.2c0,0,0,0-0.1,0c-0.3,0.2-0.5,0.4-0.8,0.6c0,0,0,0,0,0c-0.2,0.2-0.5,0.4-0.7,0.7
			c-0.1,0.1-0.1,0.2-0.2,0.3c-0.1,0.2-0.3,0.4-0.4,0.5c-0.1,0.1-0.1,0.2-0.2,0.3c-0.1,0.2-0.2,0.4-0.3,0.5c-0.1,0.1-0.1,0.2-0.2,0.4
			c-0.1,0.2-0.2,0.4-0.2,0.6c0,0.1-0.1,0.2-0.1,0.4c-0.1,0.2-0.1,0.4-0.1,0.7c0,0.1,0,0.2-0.1,0.3c0,0.3-0.1,0.7-0.1,1v68.5
			c0,4.1,3.4,7.5,7.5,7.5s7.5-3.4,7.5-7.5v-57l107.9,47.3v133.8l-107.9-46.5v-24.2c0-4.1-3.4-7.5-7.5-7.5s-7.5,3.4-7.5,7.5v24
			L57.7,417c-3.7-4.7-8.5-8.2-14.2-10.3c-8.1-3-16.9-2.6-24.7,1C11,411.3,5,417.7,2,425.8c-3,8.1-2.6,16.9,1,24.7
			c5.4,11.8,17.2,18.8,29.4,18.8c4.5,0,9.1-1,13.5-3c7.8-3.6,13.8-10.1,16.8-18.2c2.1-5.7,2.5-11.7,1.4-17.5l68.8-31.8L253,450.6
			c0.3,0.1,0.5,0.2,0.8,0.3c0.1,0,0.1,0,0.2,0c0.3,0.1,0.5,0.1,0.8,0.2c0.1,0,0.2,0,0.3,0c0.3,0,0.6,0.1,1,0.1c0.3,0,0.6,0,1-0.1
			c0.1,0,0.2,0,0.3,0c0.3,0,0.5-0.1,0.8-0.2c0.1,0,0.1,0,0.2,0c0.3-0.1,0.5-0.2,0.8-0.3l120.2-51.8l68.8,31.8
			c-2.9,14.3,4.3,29.3,18.1,35.7c4.3,2,8.9,3,13.5,3c3.8,0,7.5-0.7,11.2-2c8.1-3,14.6-8.9,18.2-16.8
			C512.6,442.7,513,433.9,510,425.8z M238.7,75c0-9.5,7.8-17.3,17.3-17.3c9.5,0,17.3,7.8,17.3,17.3s-7.8,17.3-17.3,17.3
			C246.5,92.3,238.7,84.5,238.7,75z M39.6,452.7c-4.2,1.9-8.9,2.1-13.2,0.5c-4.3-1.6-7.8-4.8-9.7-9c-1.9-4.2-2.1-8.9-0.5-13.2
			c1.6-4.3,4.8-7.8,9-9.7c2.3-1.1,4.8-1.6,7.2-1.6c6.5,0,12.8,3.7,15.7,10.1C52.1,438.4,48.3,448.7,39.6,452.7z M371.4,385.9
			l-107.9,46.5V298.6l71-31.1l36.9-16.2L371.4,385.9L371.4,385.9z M495.4,444.3c-4,8.7-14.3,12.5-23,8.5c-4.2-1.9-7.4-5.4-9-9.7
			c-1.6-4.3-1.4-9,0.5-13.2c2.9-6.3,9.2-10.1,15.7-10.1c2.4,0,4.9,0.5,7.2,1.6c4.2,1.9,7.4,5.4,9,9.7
			C497.5,435.3,497.3,440.1,495.4,444.3z"/>
	</g>
</g>
</svg>
