<?xml version="1.0" encoding="utf-8"?>
<!-- Generator: Adobe Illustrator 19.0.0, SVG Export Plug-In . SVG Version: 6.00 Build 0)  -->
<svg version="1.1" id="Layer_1" xmlns="http://www.w3.org/2000/svg" xmlns:xlink="http://www.w3.org/1999/xlink" x="0px" y="0px"
	 viewBox="0 0 20 40" style="enable-background:new 0 0 20 40;" xml:space="preserve">
<style type="text/css">
	.st0{fill:none;stroke:#FF0E20;stroke-width:1.4327;stroke-miterlimit:10;}
	.st1{fill:#FF0E20;}
</style>
<g id="XMLID_72_">
	<path id="XMLID_2527_" class="st0" d="M10,29.8L10,29.8c-4.3,0-7.9-3.5-7.9-7.9V8.8C2.1,4.5,5.7,1,10,1h0c4.3,0,7.9,3.5,7.9,7.9
		v13.1C17.9,26.3,14.3,29.8,10,29.8z"/>
	<g id="XMLID_2520_">
		<g id="XMLID_25_">
			<path id="XMLID_29_" class="st1" d="M10.7,8.3c0-1,0-2.1,0-3.1c0-0.9-1.4-0.9-1.4,0c0,1,0,2.1,0,3.1C9.3,9.2,10.7,9.2,10.7,8.3
				L10.7,8.3z"/>
		</g>
	</g>
</g>
<g id="XMLID_2513_">
	<g id="XMLID_41_">
		<path id="XMLID_48_" class="st1" d="M4.3,33.8C6,35.5,7.8,37.3,9.5,39c0.2,0.2,0.6,0.2,0.9,0c1.8-1.8,3.6-3.6,5.4-5.4
			c0.6-0.6-0.3-1.4-0.9-0.9c-1.8,1.8-3.6,3.6-5.4,5.4c0.3,0,0.6,0,0.9,0c-1.7-1.7-3.5-3.5-5.2-5.2C4.6,32.4,3.7,33.2,4.3,33.8
			L4.3,33.8z"/>
	</g>
</g>
</svg>
