<?xml version="1.0" encoding="utf-8"?>
<!-- Generator: Adobe Illustrator 21.0.0, SVG Export Plug-In . SVG Version: 6.00 Build 0)  -->
<svg version="1.1" id="Layer_1" xmlns="http://www.w3.org/2000/svg" xmlns:xlink="http://www.w3.org/1999/xlink" x="0px" y="0px"
	 viewBox="0 0 480 480" style="enable-background:new 0 0 480 480;" xml:space="preserve">
<g>
	<path d="M480,227.3v30.2c0,8.1-4,12.1-12.1,12.1H272c-3.2,0-4.8,1.6-4.8,4.8v193.5c0,8.1-4,12.1-12.1,12.1h-30.2
		c-8.1,0-12.1-4-12.1-12.1V274.5c0-3.2-1.6-4.8-4.8-4.8H12.1c-8.1,0-12.1-4-12.1-12.1v-30.2c0-8,4-12.1,12.1-12.1H208
		c3.2,0,4.8-1.6,4.8-4.8V12.1c0-8,4-12.1,12.1-12.1h30.2c8,0,12.1,4,12.1,12.1v198.3c0,3.2,1.6,4.8,4.8,4.8h195.9
		C476,215.2,480,219.3,480,227.3z"/>
</g>
</svg>
