<?xml version="1.0" encoding="utf-8"?>
<!-- Generator: Adobe Illustrator 19.0.0, SVG Export Plug-In . SVG Version: 6.00 Build 0)  -->
<svg version="1.1" id="Layer_1" xmlns="http://www.w3.org/2000/svg" xmlns:xlink="http://www.w3.org/1999/xlink" x="0px" y="0px"
	 viewBox="-936 3.1 1080 1074.1" style="enable-background:new -936 3.1 1080 1074.1;" xml:space="preserve">
<style type="text/css">
	.st0{fill:#FFFFFF;}
</style>
<g id="XMLID_236_">
	<g id="XMLID_322_">
		<g id="XMLID_467_">
			<path id="XMLID_468_" class="st0" d="M-763.7,563.1l205.8-349.3l0.4,0.9l166.5,349.4l-0.8,0L-763.7,563.1z M-558,216.1
				l-203.8,345.8l369.2,1.2L-558,216.1z"/>
		</g>
		<g id="XMLID_463_">
			<path id="XMLID_464_" class="st0" d="M-391.8,564.7l-0.4-0.8l-166.6-349.5l1,0.1l357.1,39.8l-0.5,0.7L-391.8,564.7z M-557,215.6
				l165.4,346.9l189-307.4L-557,215.6z"/>
		</g>
		<g id="XMLID_459_">
			<path id="XMLID_460_" class="st0" d="M-200.9,255.3l-0.9-0.1l-357.7-39.9l1.2-0.8L-291.3,33l0.3,0.6L-200.9,255.3z M-556.4,214.6
				l353.9,39.5l-89.3-219.5L-556.4,214.6z"/>
		</g>
		<g id="XMLID_455_">
			<path id="XMLID_456_" class="st0" d="M-558.1,215.8l-0.3-0.6l-77.3-156.9l0.8-0.1l345.3-25.1L-558.1,215.8z M-634.1,59.2
				l76.3,155l264.2-179.7L-634.1,59.2z"/>
		</g>
		<g id="XMLID_451_">
			<path id="XMLID_452_" class="st0" d="M-634.9,59.3l-0.1-1.1l234.8-44.9l0.1,0L-287.3,34L-634.9,59.3z M-400.2,14.5l-225.5,43.1
				l329.9-24L-400.2,14.5z"/>
		</g>
		<g id="XMLID_447_">
			<path id="XMLID_448_" class="st0" d="M-26.4,266.5l-175.8-11.4l-0.1-0.3l-90.6-222.9L-26.4,266.5z M-201.4,254.1l171.9,11.1
				L-290.2,35.7L-201.4,254.1z"/>
		</g>
		<g id="XMLID_443_">
			<path id="XMLID_444_" class="st0" d="M-26.7,268.2l-267.4-236l178.3,67.2l0.1,0.2L-26.7,268.2z M-289,35.3l258.6,228.2
				l-86.2-163.2L-289,35.3z"/>
		</g>
		<g id="XMLID_439_">
			<path id="XMLID_440_" class="st0" d="M-28.2,266.6L-118.4,97L30.1,245L-28.2,266.6z M-114.1,102.8l86.4,162.4l55.9-20.6
				L-114.1,102.8z"/>
		</g>
		<g id="XMLID_435_">
			<path id="XMLID_436_" class="st0" d="M76.5,320.6l-105.8-54.8l58.7-21.7L76.5,320.6z M-26.6,266l100.2,51.9l-44.6-72.4L-26.6,266
				z"/>
		</g>
		<g id="XMLID_431_">
			<path id="XMLID_432_" class="st0" d="M-1.4,569.3l-1.1-0.1l-390.3-5.1l0.5-0.8l190.5-309.6l0.4,0.7L-1.4,569.3z M-390.8,563.2
				l387.4,4.9l-198.3-312.4L-390.8,563.2z"/>
		</g>
		<g id="XMLID_427_">
			<path id="XMLID_428_" class="st0" d="M-230.4,912.4l-0.4-0.9l-161.8-348.5l391.2,5.2L-2,569L-230.4,912.4z M-390.9,564.3
				l160.6,346l226.9-341L-390.9,564.3z"/>
		</g>
		<g id="XMLID_423_">
			<path id="XMLID_424_" class="st0" d="M-567.8,862.7l-0.5-0.8L-763.7,562l0.9,0l371.9,1.5l-0.4,0.8L-567.8,862.7z M-761.8,563
				l193.9,297.6l175.2-296L-761.8,563z"/>
		</g>
		<g id="XMLID_419_">
			<path id="XMLID_420_" class="st0" d="M-790.6,874.6l0.1-0.6l27.4-313.1l0.9,1.3l195.4,299.9l-0.9,0.1L-790.6,874.6z
				 M-762.3,564.1l-27.1,309.4l220.6-12.3L-762.3,564.1z"/>
		</g>
		<g id="XMLID_415_">
			<path id="XMLID_416_" class="st0" d="M-487.3,1057.8l-304.5-184.2l1.7-0.1l222.6-12.4l0.1,0.4L-487.3,1057.8z M-788.3,874.5
				l298.7,180.7l-78.7-193L-788.3,874.5z"/>
		</g>
		<g id="XMLID_411_">
			<path id="XMLID_412_" class="st0" d="M-484.4,1058.4l-170.8-53.6l-138.7-133.7L-484.4,1058.4z M-654.5,1003.9l161.9,50.8
				L-786.2,877L-654.5,1003.9z"/>
		</g>
		<g id="XMLID_407_">
			<path id="XMLID_408_" class="st0" d="M-787.8,877.6l-66-81.6l-76.9-233.3l1-0.4L-787.8,877.6z M-852.9,795.6l60.6,74.9
				l-134.3-298.4L-852.9,795.6z"/>
		</g>
		<g id="XMLID_403_">
			<path id="XMLID_404_" class="st0" d="M-400.2,1069.5L-400.2,1069.5l-93.2-13.1l323.8-26.5l0.1,1.1L-400.2,1069.5z M-483.6,1056.7
				l83.4,11.7l217.9-36.3L-483.6,1056.7z"/>
		</g>
		<g id="XMLID_399_">
			<path id="XMLID_400_" class="st0" d="M-488.7,1057.3l-80-196.3l0.9,0.1l339.1,49.9l-1.4,0.8L-488.7,1057.3z M-567,862.3
				l78.8,193.4L-232,911.6L-567,862.3z"/>
		</g>
		<g id="XMLID_395_">
			<path id="XMLID_396_" class="st0" d="M-490.8,1057.3l2.1-1.2l258.6-145.5l0.3,0.5l61.3,119.9l-0.8,0.1L-490.8,1057.3z
				 M-230.5,912.1l-255.5,143.7l315.7-25.8L-230.5,912.1z"/>
		</g>
		<g id="XMLID_391_">
			<path id="XMLID_392_" class="st0" d="M-169.6,1031.3l-0.3-0.6l-61.2-119.1l0.6-0.2l261.5-73.2l-1.5,1.5L-169.6,1031.3z
				 M-229.5,912.3l60.2,117.3L27.3,840.4L-229.5,912.3z"/>
		</g>
		<g id="XMLID_387_">
			<path id="XMLID_388_" class="st0" d="M-789.7,876.2L-931.1,562h169l-0.1,0.6L-789.7,876.2z M-929.5,563.1L-790.4,872l27.1-308.9
				H-929.5z"/>
		</g>
		<g id="XMLID_383_">
			<path id="XMLID_384_" class="st0" d="M-837.1,292.9l1.2-1.3l201.2-233.8l0.4,0.7l77.2,156.8L-837.1,292.9z M-635,59.7L-834,291
				l275.3-76.3L-635,59.7z"/>
		</g>
		<g id="XMLID_379_">
			<path id="XMLID_380_" class="st0" d="M-762,563.1h-169l0.3-0.7l95.3-272.2L-762,563.1z M-929.5,562h166.1l-72.2-268.2L-929.5,562
				z"/>
		</g>
		<g id="XMLID_375_">
			<path id="XMLID_376_" class="st0" d="M-929.8,562.7l-1-0.3l55.9-228.5l0.1-0.1l40.7-44.1L-929.8,562.7z M-873.9,334.4
				l-53.2,217.5l90.2-257.6L-873.9,334.4z"/>
		</g>
		<g id="XMLID_371_">
			<path id="XMLID_372_" class="st0" d="M-876.4,337.1l29.5-62.1l211.6-216.7l0.8,0.7l-200.7,233.2L-876.4,337.1z M-846.1,275.7
				l-26.4,55.4l36.5-39.6l189.5-220.2L-846.1,275.7z"/>
		</g>
		<g id="XMLID_367_">
			<path id="XMLID_368_" class="st0" d="M-762.9,563.9l-0.3-1.2l-73-271.1l0.5-0.1l278.9-77.3l-0.7,1.1L-762.9,563.9z M-834.9,292.3
				l72.3,268.8l203.5-345.3L-834.9,292.3z"/>
		</g>
		<g id="XMLID_362_">
			<path id="XMLID_363_" class="st0" d="M-229.4,912l-1-0.1l-338.3-49.8l0.4-0.7l176.7-298.6l0.5,1L-229.4,912z M-567,861.2
				l335.8,49.4l-160.5-345.4L-567,861.2z"/>
		</g>
		<g id="XMLID_357_">
			<path id="XMLID_358_" class="st0" d="M-231.6,912.2l0.8-1.2L-2,568.5l0.2,1.4l31.6,269.8l-0.4,0.1L-231.6,912.2z M-2.8,571.5
				l-226.3,338.9l257.6-71.5L-2.8,571.5z"/>
		</g>
		<g id="XMLID_353_">
			<path id="XMLID_354_" class="st0" d="M28.9,841.5L-3,568.1l140.5,3.8l0.2,0.7L28.9,841.5z M-1.8,569.2l31.2,268L136.3,573
				L-1.8,569.2z"/>
		</g>
		<g id="XMLID_349_">
			<path id="XMLID_350_" class="st0" d="M-1.7,572.1l-1.2-1.9l-199.9-316.2l175.3,11.3l0,0.5L-1.7,572.1z M-200.7,255.3L-3.1,567.8
				l-25.3-301.4L-200.7,255.3z"/>
		</g>
		<g id="XMLID_345_">
			<path id="XMLID_346_" class="st0" d="M137.2,573l-140.1-3.8l-25.8-305.8L137.2,573z M-1.9,568.1l138.1,3.8L-27.2,268.4
				L-1.9,568.1z"/>
		</g>
		<g id="XMLID_326_">
			<path id="XMLID_327_" class="st0" d="M137.6,572.7l-1,0.1L-29.2,264.6l104.8,54.3l0.1,0.2L137.6,572.7z M-26.6,267.2l162.2,301.3
				l-61-248.9L-26.6,267.2z"/>
		</g>
	</g>
	<g id="XMLID_268_">
		<g id="XMLID_280_">
			
				<rect id="XMLID_321_" x="-674.9" y="54.6" transform="matrix(0.9674 0.2534 -0.2534 0.9674 30.986 177.7315)" class="st0" width="1.1" height="309"/>
			<polygon id="XMLID_320_" class="st0" points="-713.4,359 -714.1,358.1 -291,33.1 -290.4,34 			"/>
			
				<rect id="XMLID_319_" x="-731.5" y="415.2" transform="matrix(0.8239 0.5667 -0.5667 0.8239 124.54 430.5898)" class="st0" width="201.7" height="1.1"/>
			
				<rect id="XMLID_318_" x="-440" y="266.7" transform="matrix(0.5673 0.8235 -0.8235 0.5673 137.7006 534.1574)" class="st0" width="1.1" height="262.9"/>
			
				<rect id="XMLID_316_" x="-311.6" y="32.1" transform="matrix(0.99 0.1409 -0.1409 0.99 22.0345 45.5893)" class="st0" width="1.1" height="292.7"/>
			
				<rect id="XMLID_315_" x="-684.3" y="191" transform="matrix(0.7551 0.6556 -0.6556 0.7551 7.2543 363.6672)" class="st0" width="402.1" height="1.1"/>
			
				<rect id="XMLID_314_" x="-429.5" y="467" transform="matrix(0.3669 0.9302 -0.9302 0.3669 261.2202 551.3218)" class="st0" width="310.1" height="1.1"/>
			
				<rect id="XMLID_313_" x="-561.6" y="541.8" transform="matrix(0.9216 0.3881 -0.3881 0.9216 180.479 190.9564)" class="st0" width="358" height="1.1"/>
			
				<rect id="XMLID_312_" x="-564" y="471.7" transform="matrix(0.9901 0.1403 -0.1403 0.9901 76.4576 84.8371)" class="st0" width="1.1" height="225.8"/>
			
				<rect id="XMLID_311_" x="-399" y="468.4" transform="matrix(0.2269 0.9739 -0.9739 0.2269 329.0294 893.7834)" class="st0" width="1.1" height="371.5"/>
			<polygon id="XMLID_310_" class="st0" points="-929.9,563.1 -930.6,562.3 -714.1,358.2 -713.4,358.9 			"/>
			
				<rect id="XMLID_309_" x="-828.4" y="527" transform="matrix(0.3696 0.9292 -0.9292 0.3696 82.5772 933.3033)" class="st0" width="363.7" height="1.1"/>
			
				<rect id="XMLID_308_" x="-334.3" y="350.7" transform="matrix(0.9779 0.2092 -0.2092 0.9779 69.0104 49.8577)" class="st0" width="266.2" height="1.1"/>
			
				<rect id="XMLID_307_" x="-144.9" y="357.9" transform="matrix(0.8473 0.531 -0.531 0.8473 241.0581 152.2696)" class="st0" width="1.1" height="275"/>
			
				<rect id="XMLID_306_" x="-385.6" y="205.7" transform="matrix(0.5364 0.844 -0.844 0.5364 90.237 248.2839)" class="st0" width="409.4" height="1.1"/>
			
				<rect id="XMLID_305_" x="-49.8" y="261.8" transform="matrix(0.9332 0.3593 -0.3593 0.9332 112.552 39.2166)" class="st0" width="1.1" height="121.3"/>
			
				<rect id="XMLID_304_" x="-109.3" y="475.5" transform="matrix(0.7313 0.6821 -0.6821 0.7313 333.503 105.4864)" class="st0" width="284.3" height="1.1"/>
			<polygon id="XMLID_300_" class="st0" points="-217.5,612.3 -217.6,611.3 136.8,572.4 136.9,573.5 			"/>
			
				<rect id="XMLID_299_" x="-302.8" y="701.4" transform="matrix(5.641146e-002 0.9984 -0.9984 5.641146e-002 500.3741 874.5147)" class="st0" width="180.6" height="1.1"/>
			
				<rect id="XMLID_298_" x="-209.6" y="814.7" transform="matrix(0.9816 0.1908 -0.1908 0.9816 153.8848 31.9148)" class="st0" width="241.6" height="1.1"/>
			
				<rect id="XMLID_297_" x="-35.8" y="478.5" transform="matrix(0.5357 0.8444 -0.8444 0.5357 559.9736 346.6883)" class="st0" width="1.1" height="408.1"/>
			<polygon id="XMLID_296_" class="st0" points="-169.9,1030 -207.9,792.2 -206.8,792.1 -168.8,1029.8 			"/>
			
				<rect id="XMLID_295_" x="-348.6" y="731.4" transform="matrix(0.6863 0.7273 -0.7273 0.6863 563.3799 543.2347)" class="st0" width="1.1" height="386.6"/>
			
				<rect id="XMLID_294_" x="-585.4" y="743.8" transform="matrix(0.9685 0.2491 -0.2491 0.9685 173.0226 121.4621)" class="st0" width="384.1" height="1.1"/>
			
				<rect id="XMLID_293_" x="-603.1" y="694" transform="matrix(0.9774 0.2112 -0.2112 0.9774 156.0991 145.3715)" class="st0" width="1.1" height="219.1"/>
			<polygon id="XMLID_292_" class="st0" points="-489.1,1057.6 -626.2,910.9 -625.4,910.2 -488.3,1056.9 			"/>
			
				<rect id="XMLID_291_" x="-641" y="908.3" transform="matrix(0.9547 0.2975 -0.2975 0.9547 255.8609 233.8725)" class="st0" width="1.1" height="98.5"/>
			<polygon id="XMLID_290_" class="st0" points="-625.9,911.1 -789.8,874 -789.5,873 -625.6,910 			"/>
			
				<rect id="XMLID_289_" x="-417.1" y="633.9" transform="matrix(0.272 0.9623 -0.9623 0.272 515.9865 1020.6862)" class="st0" width="1.1" height="434.8"/>
			
				<rect id="XMLID_288_" x="-849.4" y="807.1" transform="matrix(0.6505 0.7595 -0.7595 0.6505 363.9309 824.4363)" class="st0" width="270.9" height="1.1"/>
			
				<rect id="XMLID_287_" x="-691.2" y="589.2" transform="matrix(3.717429e-002 0.9993 -0.9993 3.717429e-002 35.1375 1364.793)" class="st0" width="1.1" height="222.8"/>
			
				<rect id="XMLID_286_" x="-758.4" y="353" transform="matrix(0.9692 0.2461 -0.2461 0.9692 107.5396 202.8799)" class="st0" width="1.1" height="357.3"/>
			
				<rect id="XMLID_285_" x="-961.8" y="633.2" transform="matrix(0.67 0.7424 -0.7424 0.67 184.6382 852.1782)" class="st0" width="191.4" height="1.1"/>
			<polygon id="XMLID_284_" class="st0" points="-853.2,796.2 -854.1,795.8 -802.5,704.5 -801.5,705 			"/>
			<polygon id="XMLID_283_" class="st0" points="-714.1,359 -846.8,275.3 -846.3,274.4 -713.5,358.1 			"/>
			<polygon id="XMLID_282_" class="st0" points="-490.4,186.7 -491.3,186.2 -400.2,13.4 -399.2,13.9 			"/>
			<polygon id="XMLID_281_" class="st0" points="-331,323.7 -331.7,323 -117.1,98.6 -116.3,99.3 			"/>
		</g>
		<g id="XMLID_269_">
			<circle id="XMLID_279_" class="st0" cx="-547.3" cy="472.4" r="5.7"/>
			<circle id="XMLID_278_" class="st0" cx="-714.1" cy="358.7" r="5.7"/>
			<circle id="XMLID_277_" class="st0" cx="-579.5" cy="695.9" r="5.7"/>
			<circle id="XMLID_276_" class="st0" cx="-802.4" cy="705.2" r="5.7"/>
			<circle id="XMLID_275_" class="st0" cx="-625.6" cy="910.2" r="5.7"/>
			<circle id="XMLID_274_" class="st0" cx="-207.5" cy="791.6" r="5.7"/>
			<circle id="XMLID_273_" class="st0" cx="-218.1" cy="611.3" r="5.7"/>
			<circle id="XMLID_272_" class="st0" cx="-331" cy="323.4" r="5.7"/>
			<circle id="XMLID_271_" class="st0" cx="-71.6" cy="379.2" r="5.7"/>
			<circle id="XMLID_270_" class="st0" cx="-488.9" cy="186.7" r="5.7"/>
		</g>
	</g>
	<g id="XMLID_240_">
		<circle id="XMLID_266_" class="st0" cx="135.7" cy="572.7" r="7.1"/>
		<circle id="XMLID_265_" class="st0" cx="-3" cy="568.1" r="8.7"/>
		<circle id="XMLID_264_" class="st0" cx="-231.6" cy="912.4" r="8.7"/>
		<circle id="XMLID_263_" class="st0" cx="29.7" cy="837" r="8.7"/>
		<circle id="XMLID_262_" class="st0" cx="-169.4" cy="1031.3" r="6.4"/>
		<circle id="XMLID_261_" class="st0" cx="-401.3" cy="1069.5" r="4.8"/>
		<circle id="XMLID_260_" class="st0" cx="-490" cy="1057.3" r="8.7"/>
		<circle id="XMLID_259_" class="st0" cx="-656.9" cy="1004.9" r="5.5"/>
		<circle id="XMLID_258_" class="st0" cx="-568.7" cy="862.7" r="8.7"/>
		<circle id="XMLID_257_" class="st0" cx="-791" cy="874.6" r="8.7"/>
		<circle id="XMLID_256_" class="st0" cx="-852" cy="797.4" r="5.3"/>
		<circle id="XMLID_255_" class="st0" cx="-390.9" cy="563.1" r="8.7"/>
		<circle id="XMLID_254_" class="st0" cx="-762" cy="564.1" r="8.7"/>
		<circle id="XMLID_253_" class="st0" cx="-929.6" cy="562.3" r="5.2"/>
		<circle id="XMLID_252_" class="st0" cx="-834.6" cy="292.9" r="8.7"/>
		<circle id="XMLID_251_" class="st0" cx="-557.2" cy="215.8" r="8.7"/>
		<circle id="XMLID_250_" class="st0" cx="-634.5" cy="59.9" r="8.7"/>
		<circle id="XMLID_249_" class="st0" cx="-398.5" cy="12.4" r="6.4"/>
		<circle id="XMLID_248_" class="st0" cx="-290.7" cy="35.7" r="8.7"/>
		<circle id="XMLID_247_" class="st0" cx="-202.1" cy="253.7" r="8.7"/>
		<circle id="XMLID_246_" class="st0" cx="-118.4" cy="97" r="7.4"/>
		<circle id="XMLID_245_" class="st0" cx="-28.7" cy="266.5" r="8.7"/>
		<circle id="XMLID_244_" class="st0" cx="30.1" cy="245" r="6.1"/>
		<circle id="XMLID_243_" class="st0" cx="76.5" cy="319" r="8.7"/>
		<circle id="XMLID_242_" class="st0" cx="-846.5" cy="273.4" r="6"/>
		<circle id="XMLID_241_" class="st0" cx="-876.4" cy="335.1" r="5.3"/>
	</g>
</g>
</svg>
