<?xml version="1.0" encoding="utf-8"?>
<!-- Generator: Adobe Illustrator 21.0.0, SVG Export Plug-In . SVG Version: 6.00 Build 0)  -->
<svg version="1.1" id="Layer_1" xmlns="http://www.w3.org/2000/svg" xmlns:xlink="http://www.w3.org/1999/xlink" x="0px" y="0px"
	 viewBox="0 0 53.6 38.9" style="enable-background:new 0 0 53.6 38.9;" xml:space="preserve">
<style type="text/css">
	.st0{fill:#F8EF00;}
</style>
<g id="XMLID_1905_">
	<g>
		<g id="XMLID_30_">
			<path id="XMLID_33_" class="st0" d="M25.9,37.4c0-0.7,0.1-5.6-4.2-5.6s-3.9,7,2.6,7C25.5,38.9,25.9,38,25.9,37.4z"/>
			<path id="XMLID_32_" class="st0" d="M27.8,37.4c0-0.7-0.1-5.6,4.2-5.6s3.9,7-2.6,7C28.2,38.9,27.8,38,27.8,37.4z"/>
			<path id="XMLID_31_" class="st0" d="M44.3,0.5L31.7,8c-1,0.6-1,2.1,0,2.7l7.2,4.1c0.7,0.4,1.7-0.1,1.7-1v-2.2
				c0-1,0.5-1.9,1.3-2.5l2-1.3C44.8,7.2,46,7.9,46,9v12.1c0,1.2-1.3,1.9-2.3,1.3l-13.8-7.9c-1.9-1.1-4.2-1.1-6.1,0L10,22.4
				c-1,0.6-2.3-0.1-2.3-1.3v-12c0-1.1,1.2-1.7,2.1-1.2l2.9,1.8c0.3,0.2,0.4,0.5,0.4,0.8v3.4c0,0.8,0.9,1.3,1.6,0.9l7.3-4.2
				c1-0.6,1-2.1,0-2.7L9.4,0.4C8.4-0.2,7-0.2,6,0.4L1.1,3.3C0.4,3.7,0,4.4,0,5.2v20.9c0,0.8,0.4,1.5,1.1,1.9L6,30.9
				c1.1,0.6,2.4,0.6,3.4,0l16.2-9.5c0.7-0.4,1.7-0.4,2.4,0l16.2,9.5c1.1,0.6,2.4,0.6,3.4,0l4.9-2.9c0.7-0.4,1.1-1.1,1.1-1.9V5.2
				c0-0.8-0.4-1.5-1.1-1.9l-4.9-2.9C46.6-0.2,45.3-0.2,44.3,0.5z"/>
		</g>
	</g>
</g>
</svg>
